# xmcd
#
# Track frame offsets:
#	150
#	11988
#	24029
#	35027
#	50808
#	63062
#	75262
#	90433
#	100347
#	112619
#	127915
#	146465
#	161969
#
# Disc length: 2287 seconds
# Revision: 3
# Processed by: cddbd v1.5.2PL0 Copyright (c) Steve Scherf et al.
# Submitted via: dBpowerAMP V12.0
#
DISCID=9708ed0d
DTITLE=Lorrraine Jordan - Country Grass
DYEAR=2015
DGENRE=Country
TTITLE0=Running Water
TTITLE1=I Got Mexico
TTITLE2=Darned If I Don't, Danged If I Do
TTITLE3=Common Man
TTITLE4=Ready For The Times To Get Better
TTITLE5=Dixie Road
TTITLE6=You Can Have Her
TTITLE7=Boogie Grass Band
TTITLE8=Digging Up Bones
TTITLE9=Do You Want To Go To Heaven
TTITLE10=Don't Close Your Eyes
TTITLE11=Rose Garden
TTITLE12=Last Date
EXTD=
EXTT0=
EXTT1=
EXTT2=
EXTT3=
EXTT4=
EXTT5=
EXTT6=
EXTT7=
EXTT8=
EXTT9=
EXTT10=
EXTT11=
EXTT12=
PLAYORDER=
